<svg width="58" height="77" viewBox="0 0 58 77" fill="none" xmlns="http://www.w3.org/2000/svg">
<path d="M54.6286 21.1387L14.9717 0.83801C14.3607 0.52724 13.6637 0.375807 12.959 0.401174C12.2555 0.426541 11.5737 0.627646 10.9943 0.98124L2.28271 5.45942L6.32867 10.3317L7.83813 11.8603V46.659C7.8414 47.6776 8.14527 48.6778 8.71922 49.5594C9.29426 50.4419 10.1209 51.1749 11.1152 51.6861L40.7798 66.8764L41.0771 68.3454L47.1313 75.8571L56.4484 71.0084C56.8852 70.7721 57.2468 70.4413 57.4972 70.0458C57.7477 69.6504 57.8784 69.2048 57.8784 68.7514V26.3221C57.8926 25.2823 57.6007 24.257 57.0311 23.3484C56.4604 22.4389 55.6327 21.6779 54.6286 21.1387Z" fill="#9263C1"/>
<path d="M45.3507 25.9628L5.22228 5.45901C4.77685 5.22955 4.2704 5.10859 3.75417 5.1084C3.23794 5.10811 2.73152 5.22878 2.28499 5.45785C1.83956 5.68702 1.46929 6.01659 1.21336 6.41311C0.956332 6.80972 0.823452 7.25919 0.826719 7.71599V50.2524C0.82563 51.271 1.12621 52.2712 1.69907 53.1537C2.27193 54.0363 3.09638 54.7693 4.08963 55.2805L44.2181 75.82C44.6755 76.0554 45.195 76.1798 45.7232 76.1808C46.2525 76.1817 46.772 76.0592 47.2294 75.8248C47.6879 75.5914 48.068 75.2548 48.3327 74.8497C48.5973 74.4436 48.7356 73.9836 48.7356 73.5158V31.1462C48.7367 30.0949 48.4242 29.0619 47.8295 28.1513C47.236 27.2418 46.381 26.4866 45.3507 25.9628Z" fill="#8444B2"/>
<path d="M48.7355 73.5159V31.1463C48.7192 30.4471 48.5634 29.7555 48.277 29.1044L57.5811 24.3271C57.8533 24.9522 58.0004 25.6158 58.0124 26.2861V68.6557C58.0134 69.109 57.8827 69.5546 57.6323 69.9501C57.3818 70.3446 57.0202 70.6764 56.5835 70.9127L47.3469 75.689C47.7619 75.4556 48.106 75.1353 48.3478 74.7563C48.5907 74.3772 48.7235 73.9509 48.7355 73.5159Z" fill="#7231A3"/>
<path d="M13.9604 23.276C13.4322 23.9512 13.2014 24.7758 13.3135 25.5928V30.6797V30.8109C13.3135 31.7783 12.9628 32.2914 12.2615 32.3637C11.1931 32.3319 10.1574 32.0242 9.28174 31.4793V35.0625C10.4198 35.6113 11.4261 36.3491 12.2484 37.2355C12.9422 38.0226 13.3081 38.9968 13.2863 39.9941V45.0221C13.2569 46.0494 13.4736 47.0708 13.9202 48.0189C14.4124 48.9477 15.1094 49.7801 15.9698 50.4669C17.1645 51.3841 18.466 52.1847 19.8535 52.856V49.512C18.9942 49.0944 18.2525 48.5099 17.6829 47.8038C17.292 47.1933 17.1003 46.4988 17.1297 45.7976V40.7946C17.1297 38.8714 15.9426 37.1285 13.5292 35.5399V35.3489C15.9164 36.2083 17.1025 35.6113 17.1428 33.581V28.8046C17.1428 28.0282 17.3453 27.6106 17.7233 27.3839C18.1001 27.1563 18.8287 27.3839 19.8807 27.897V24.553C18.6925 23.8547 17.3987 23.3078 16.0373 22.9297C15.6878 22.8159 15.3109 22.7879 14.945 22.8487C14.5802 22.9104 14.2393 23.057 13.9604 23.276Z" fill="white"/>
<path d="M36.3975 44.7121C35.7288 43.9752 35.3715 43.0541 35.3868 42.1089V36.8898C35.4314 35.3765 34.9152 33.8911 33.9165 32.6623C32.4898 31.1827 30.7495 29.9655 28.7935 29.0801V32.4357C29.6538 32.8456 30.3966 33.4262 30.964 34.1313C31.3571 34.737 31.5532 35.4276 31.5303 36.1259V40.9022C31.5989 42.0037 31.9649 43.0753 32.5955 44.0263C33.226 44.9774 34.1049 45.7818 35.157 46.3721V46.563C34.7486 46.3663 34.2999 46.2428 33.8359 46.2023C33.373 46.1608 32.9058 46.2023 32.4604 46.3238C31.8265 46.5987 31.5172 47.2073 31.5172 48.1747V48.3185V53.0948C31.5172 53.8712 31.3277 54.3487 30.9509 54.5165C30.573 54.6834 29.8314 54.5165 28.7793 54.0024V57.358C31.2069 58.5521 32.9058 59.1259 33.9034 58.9581C34.901 58.7913 35.3998 57.8836 35.3998 56.2353V51.2082C35.3998 50.1568 35.7647 49.5965 36.4388 49.5C37.5105 49.5174 38.5506 49.826 39.4186 50.3845V46.8013C38.2663 46.2872 37.2404 45.5773 36.3975 44.7121Z" fill="white"/>
</svg>
