<svg width="84" height="79" viewBox="0 0 84 79" fill="none" xmlns="http://www.w3.org/2000/svg">
<path d="M41.0269 65.2692L0.197021 44.2764V57.8057L41.0269 78.7397V65.2692Z" fill="#BBCEE1"/>
<path d="M42.4029 22.793L0.19751 44.2768L41.0274 65.2696L83.2861 43.7511L42.4029 22.793Z" fill="white"/>
<path d="M83.3003 43.7502L41.0273 65.2688V78.7393L83.3003 57.0886V43.7502Z" fill="#A7BCCE"/>
<path d="M41.0274 43.1423L0.19751 22.1484V35.6788L41.0274 56.6128V43.1423Z" fill="#BBCEE1"/>
<path d="M42.4034 0.666016L0.197998 22.1488L41.0279 43.1427L83.2866 21.6241L42.4034 0.666016Z" fill="white"/>
<path d="M83.3005 21.6233L41.0276 43.1418V56.6123L83.3005 34.9501V21.6233Z" fill="#A7BCCE"/>
<path d="M53.7693 29.8873L51.2752 28.562C49.3454 29.215 47.3284 29.6452 45.2744 29.84V31.6909H39.0448V29.84C36.9864 29.6432 34.9662 29.2131 33.0309 28.562L30.4824 29.8757L26.0596 27.6071L28.6222 26.305C27.4831 25.4977 26.6118 24.4339 26.0999 23.2243H22.4863V20.024H26.0999C26.59 18.8164 27.4438 17.7516 28.5678 16.9424L26.0063 15.6287L30.4018 13.3717L32.9633 14.6738C34.8954 14.0257 36.9113 13.5965 38.9642 13.3958V11.5449H45.1938V13.3958C47.2511 13.5955 49.2713 14.0247 51.2077 14.6738L53.7562 13.3717L58.179 15.6287L55.6305 16.9424C56.7642 17.7507 57.6301 18.8155 58.1387 20.024H61.7653V23.2118H58.0167C57.5201 24.4165 56.6684 25.4803 55.5499 26.2934L58.1114 27.6071L53.7693 29.8873ZM36.2404 24.5978C38.0298 25.4041 40.0097 25.8237 42.018 25.8237C44.0263 25.8237 46.0062 25.4041 47.7956 24.5978C50.9779 22.961 50.9648 20.3105 47.7956 18.6265C46.0062 17.8201 44.0263 17.3996 42.018 17.3996C40.0097 17.3996 38.0298 17.8201 36.2404 18.6265C33.0581 20.2748 33.0712 22.9253 36.2404 24.5978Z" fill="#1C75BC"/>
</svg>
