<svg width="22" height="26" viewBox="0 0 22 26" fill="none" xmlns="http://www.w3.org/2000/svg">
<path d="M5.8721 2.90196C5.13049 2.90196 4.12486 2.89524 2.51216 2.89356C2.1002 2.89269 1.70226 3.04301 1.39383 3.316C1.0854 3.58899 0.887942 3.96566 0.83892 4.37453L0.827148 4.57626V23.0624C0.827148 23.5082 1.00432 23.9358 1.31969 24.2511C1.63506 24.5663 2.0628 24.7434 2.5088 24.7434L19.3253 24.7535C19.7372 24.7539 20.135 24.6032 20.4431 24.3299C20.7512 24.0566 20.9483 23.6797 20.9969 23.2709L21.0069 23.0742V4.58298C21.0069 4.13715 20.8298 3.70957 20.5144 3.39432C20.199 3.07907 19.7713 2.90196 19.3253 2.90196H15.962" stroke="#044176" stroke-width="1.23903" stroke-linecap="round" stroke-linejoin="round"/>
<path d="M4.19043 9.62579H12.5987M4.19043 12.9878H15.962M4.19043 16.3499H9.23538M4.19043 19.7119H14.2803M14.2803 1.2207H7.55373L-nan -nanL-nan -nanL7.55373 1.2207C7.10773 1.2207 6.67999 1.39781 6.36462 1.71306C6.04925 2.02831 5.87208 2.45589 5.87208 2.90172C5.87208 3.34755 6.04925 3.77513 6.36462 4.09038C6.67999 4.40563 7.10773 4.58274 7.55373 4.58274H14.2803C14.7263 4.58274 15.1541 4.40563 15.4694 4.09038C15.7848 3.77513 15.962 3.34755 15.962 2.90172C15.962 2.45589 15.7848 2.02831 15.4694 1.71306C15.1541 1.39781 14.7263 1.2207 14.2803 1.2207Z" stroke="#044176" stroke-width="1.23903" stroke-linecap="round" stroke-linejoin="round"/>
</svg>
