<svg width="58" height="76" viewBox="0 0 58 76" fill="none" xmlns="http://www.w3.org/2000/svg">
<path d="M54.2419 20.7603L14.585 0.458977C13.9751 0.149365 13.278 -0.00303162 12.5756 0.0201169C11.872 0.0432655 11.1903 0.240996 10.6076 0.590153L1.91016 5.04432L5.95505 9.90455L7.4656 11.4459V46.2439C7.46451 47.2596 7.76619 48.2579 8.33905 49.1385C8.91191 50.0191 9.73635 50.7502 10.7285 51.2594L40.3942 66.4613L40.6904 67.9187L46.7577 75.442L56.0618 70.5933C56.4832 70.3454 56.8274 70.0079 57.0637 69.6114C57.299 69.215 57.4188 68.7723 57.4111 68.3248V25.9426C57.434 24.9096 57.1541 23.8892 56.5987 22.9806C56.0433 22.073 55.2308 21.3071 54.2419 20.7603Z" fill="#79FF68"/>
<path d="M44.9781 25.5844L4.84963 5.07965C4.40311 4.85105 3.89562 4.73145 3.37939 4.73145C2.86317 4.73145 2.35564 4.85201 1.90912 5.0806C1.4615 5.30919 1.09121 5.6381 0.833094 6.03451C0.57498 6.43093 0.439941 6.87944 0.439941 7.33663V49.874C0.443209 50.8926 0.747061 51.8928 1.3221 52.7744C1.89605 53.6569 2.72267 54.3899 3.71701 54.9011L43.8324 75.4416C44.2898 75.677 44.8082 75.8004 45.3375 75.8014C45.8657 75.8023 46.3853 75.6799 46.8438 75.4464C47.3012 75.2121 47.6823 74.8754 47.9459 74.4703C48.2106 74.0652 48.35 73.6052 48.3489 73.1364V30.7668C48.3521 29.7165 48.0418 28.6844 47.4493 27.7749C46.8579 26.8653 46.0051 26.1091 44.9781 25.5844Z" fill="#50E85E"/>
<path d="M48.3488 73.1368V30.7672C48.3324 30.0679 48.1778 29.3773 47.8913 28.7253L57.2085 23.949C57.471 24.5759 57.6115 25.2376 57.6267 25.907V68.265C57.6343 68.7125 57.5145 69.1552 57.2793 69.5516C57.0429 69.948 56.6988 70.2856 56.2784 70.5335L47.0408 75.3108C47.4437 75.0706 47.7737 74.7475 48.0024 74.3684C48.23 73.9894 48.3498 73.5669 48.3488 73.1368Z" fill="#3CC743"/>
<path d="M5.52368 32.486L17.9567 44.4393L17.9697 41.3943L9.40734 33.4052L17.997 33.7514V30.6949L5.53784 30.6592L5.52368 32.486Z" fill="#1F5E77"/>
<path d="M19.2368 47.6874L22.7023 49.467L29.606 34.3008L26.1264 32.5212L19.2368 47.6874Z" fill="#1F5E77"/>
<path d="M30.8196 37.2393V40.3084L39.382 48.7393L30.7924 47.9513L30.7793 50.9963L43.2515 51.7717L43.2657 49.9449L30.8196 37.2393Z" fill="#1F5E77"/>
</svg>
