<svg width="58" height="76" viewBox="0 0 58 76" fill="none" xmlns="http://www.w3.org/2000/svg">
<path d="M54.1494 20.7067L14.4924 0.405548C13.8836 0.0972214 13.1877 -0.0528654 12.4874 -0.0275208C11.786 -0.00217606 11.1075 0.197578 10.5281 0.548854L1.81763 5.00316L5.8625 9.86353L7.37306 11.392V46.1906C7.37415 47.2093 7.67692 48.21 8.25196 49.0922C8.827 49.9746 9.65362 50.7077 10.649 51.218L40.3147 66.4201L40.6251 67.877L46.6793 75.3884L55.9964 70.54H56.064C56.5007 70.3044 56.8601 69.9726 57.1084 69.577C57.3567 69.1814 57.4841 68.7355 57.4798 68.283V25.9014C57.4885 24.8528 57.1857 23.8206 56.6009 22.9086C56.016 21.9968 55.1709 21.2373 54.1494 20.7067Z" fill="#FCEC32"/>
<path d="M44.8854 25.543L4.75688 5.02694C4.30926 4.80216 3.80284 4.68489 3.2877 4.68679C2.77365 4.68869 2.26831 4.80969 1.82288 5.03777C1.37744 5.26586 1.00606 5.59311 0.747948 5.98711C0.488745 6.38111 0.351524 6.82816 0.347168 7.28395V49.8208C0.348257 50.8396 0.652111 51.8402 1.22715 52.7225C1.80219 53.6049 2.62879 54.3379 3.62422 54.8483L43.7527 75.3883C44.2101 75.6235 44.7285 75.7477 45.2578 75.7486C45.786 75.7493 46.3055 75.6268 46.764 75.393C47.2226 75.1593 47.6026 74.8227 47.8673 74.4172C48.1309 74.0118 48.2702 73.5518 48.2702 73.0835V30.7258C48.2713 29.6745 47.9588 28.6416 47.3641 27.7316C46.7695 26.8215 45.9146 26.0666 44.8854 25.543Z" fill="#F5D012"/>
<path d="M48.2703 73.0832V30.7255C48.2561 30.0261 48.1004 29.3345 47.8118 28.6834L57.1159 23.9067C57.3773 24.5385 57.5188 25.2043 57.533 25.8772V68.2349C57.5384 68.6874 57.4099 69.1332 57.1616 69.5289C56.9133 69.9245 56.5539 70.2563 56.1172 70.4919H56.0507L46.8142 75.2686C47.2444 75.0421 47.6038 74.723 47.8575 74.3411C48.1124 73.9591 48.254 73.5265 48.2703 73.0832Z" fill="#EAA10C"/>
<path d="M12.9956 29.198C13.6523 29.5273 14.2589 29.9286 14.8024 30.3922C15.409 30.9177 16.0287 31.4909 16.6364 32.0999L17.7549 29.819C16.3979 28.4047 14.7904 27.1948 12.9956 26.2365C11.7976 25.534 10.3861 25.1716 8.94963 25.1976C8.38113 25.2419 7.8355 25.4144 7.36283 25.6988C6.89126 25.983 6.50897 26.3696 6.25304 26.8217C5.56474 28.0811 5.24129 29.4722 5.30881 30.87C5.25545 33.388 5.89365 35.8799 7.17006 38.1306C8.39855 40.2038 10.2696 41.9233 12.5643 43.0864C13.9246 43.8424 15.4504 44.3349 17.0404 44.5314V41.5818C15.5876 41.4019 14.1827 40.9976 12.8878 40.3876C10.1901 38.9904 8.8418 36.4467 8.8418 32.7568C8.69368 31.484 9.08249 30.2075 9.93416 29.1742C10.6758 28.5174 11.6876 28.5293 12.9956 29.198Z" fill="#8444B2"/>
<path d="M26.2644 36.0168L23.8368 34.7749L23.8238 39.1934L19.5088 36.9961V39.48L23.8096 41.6773L23.7965 46.0361L26.2372 47.278L26.2502 42.9192L30.5521 45.1285L30.5652 42.6445L26.2502 40.4473L26.2644 36.0168Z" fill="#8444B2"/>
<path d="M39.2624 47.0984L39.2755 42.6679L36.836 41.426L36.8218 45.8445L32.521 43.6471V46.1311L36.8087 48.3283L36.7946 52.6871L39.2352 53.929L39.2494 49.5704L43.5502 51.7676L43.5643 49.2957L39.2624 47.0984Z" fill="#8444B2"/>
</svg>
