<svg width="84" height="79" viewBox="0 0 84 79" fill="none" xmlns="http://www.w3.org/2000/svg">
<path d="M41.146 65.444L0.316162 44.4502V57.9805L41.1591 78.9145L41.146 65.444Z" fill="#BBCEE1"/>
<path d="M42.5202 22.9678L0.315918 44.4506L41.1458 65.4444L83.4176 43.9259L42.5202 22.9678Z" fill="white"/>
<path d="M83.4176 43.925L41.1458 65.4436L41.1588 78.9141L83.4176 57.2635V43.925Z" fill="#A7BCCE"/>
<path d="M41.1458 43.3161L0.315918 22.3223V35.8526L41.1588 56.7866L41.1458 43.3161Z" fill="#BBCEE1"/>
<path d="M42.5199 0.839844L0.315674 22.3227L41.1455 43.3165L83.4173 21.797L42.5199 0.839844Z" fill="white"/>
<path d="M83.4173 21.7961L41.1455 43.3156L41.1586 56.7862L83.4173 35.1239V21.7961Z" fill="#A7BCCE"/>
<path d="M26.5423 20.1963C24.3304 19.0582 25.3236 17.4146 29.522 15.2647C31.2439 14.333 33.1248 13.6559 35.0906 13.2585C36.4367 12.918 37.8764 13.028 39.1365 13.5691C39.5732 13.7678 39.9457 14.0648 40.2147 14.4285C40.4173 14.74 40.585 15.068 40.7135 15.4085L44.57 14.5722C44.3511 14.0157 44.0069 13.5035 43.5593 13.0676C43.0747 12.6287 42.5203 12.2545 41.9137 11.9564C39.7235 10.8781 37.1968 10.4585 34.7137 10.7623C31.6708 11.1124 28.7444 12.0239 26.1241 13.4379C23.1847 14.9541 21.4454 16.4115 20.9324 17.8082C20.4206 19.2058 21.1622 20.4355 23.2119 21.4868C24.534 22.1784 26.0021 22.6211 27.5268 22.788L30.5197 21.2361C29.1344 21.1049 27.7861 20.7538 26.5423 20.1963Z" fill="#91A6B7"/>
<path d="M44.893 24.3281C45.2426 23.5082 45.2187 22.6006 44.8266 21.7962C44.5598 21.2474 44.4541 20.6484 44.5162 20.0533C44.6011 19.8141 44.7406 19.5932 44.9268 19.4042C45.1119 19.2151 45.3395 19.0627 45.5944 18.9547C46.1792 18.6509 46.8338 18.4715 47.509 18.4291C48.1396 18.3982 48.7658 18.5265 49.3158 18.7994C49.758 19.0116 50.1435 19.3048 50.4484 19.6588C50.6946 19.9626 50.9069 20.2867 51.0823 20.6262L54.9126 19.8025C54.3038 18.6673 53.2953 17.7365 52.0396 17.151C50.5628 16.3939 48.878 16.0139 47.1725 16.0525C45.4201 16.0592 43.7005 16.4711 42.1834 17.2465C41.4972 17.5706 40.8808 17.9989 40.3624 18.513C40.0052 18.8959 39.7601 19.3511 39.648 19.8382C39.575 20.416 39.6589 21.0014 39.8908 21.5454C40.15 22.1338 40.2383 22.7704 40.1468 23.3963C40.0803 23.6529 39.9496 23.8931 39.7656 24.0995C39.5815 24.3059 39.3485 24.4737 39.0817 24.5914C38.4903 24.8923 37.8226 25.0573 37.1398 25.0688C36.4341 25.0891 35.736 24.927 35.1315 24.603C33.9967 24.0194 33.1352 23.0964 32.7039 21.9997L29.3594 23.7069C30.1098 24.8103 31.1999 25.7016 32.5014 26.2745C34.0359 27.077 35.7904 27.4898 37.5722 27.4686C39.4007 27.4271 41.1858 26.9612 42.7497 26.1192C43.6482 25.7228 44.3931 25.0997 44.893 24.3281Z" fill="#91A6B7"/>
<path d="M62.5985 22.5496C61.1217 21.7925 59.4369 21.4115 57.7303 21.451C55.9791 21.4588 54.2594 21.8706 52.7412 22.6451C52.0616 22.9731 51.4507 23.4003 50.9344 23.9115C50.5674 24.2954 50.3169 24.7555 50.2069 25.2493C50.1405 25.8232 50.2232 26.4029 50.4487 26.945C50.7101 27.5324 50.8027 28.168 50.7188 28.7959C50.6491 29.0525 50.5162 29.2926 50.33 29.499C50.1427 29.7054 49.9074 29.8733 49.6406 29.99C49.0481 30.2928 48.3816 30.4607 47.6988 30.479C46.9963 30.4886 46.3047 30.3237 45.7024 30.0016C44.5633 29.4248 43.6996 28.4988 43.276 27.3983L39.9314 29.1065C40.6763 30.206 41.7621 31.0924 43.0603 31.6615C44.5949 32.463 46.3483 32.8758 48.13 32.8556C49.9619 32.8131 51.7491 32.3521 53.3217 31.5187C54.2213 31.1108 54.963 30.4751 55.452 29.691C55.807 28.8769 55.7831 27.9702 55.3844 27.1716C55.1231 26.6209 55.0207 26.0219 55.0882 25.4278C55.1721 25.1838 55.3158 24.958 55.5097 24.768C55.7024 24.578 55.941 24.4285 56.2067 24.3292C56.785 24.0147 57.4439 23.8344 58.1213 23.8035C58.7563 23.763 59.3912 23.8913 59.9423 24.1739C60.379 24.3832 60.7602 24.6716 61.0608 25.0217C61.3069 25.3255 61.5193 25.6496 61.6946 25.9891L65.5249 25.1654C64.9031 24.0311 63.8739 23.111 62.5985 22.5496Z" fill="#91A6B7"/>
</svg>
