<svg width="58" height="77" viewBox="0 0 58 77" fill="none" xmlns="http://www.w3.org/2000/svg">
<path d="M54.3903 21.2833L14.7192 0.982138C14.1115 0.671079 13.4156 0.519357 12.7142 0.544724C12.0118 0.570187 11.3333 0.771484 10.755 1.12546L2.04443 5.57983L6.0904 10.4402L7.59987 11.9686V46.7672C7.60205 47.7857 7.9059 48.7858 8.48094 49.668C9.05598 50.5501 9.88259 51.2834 10.8769 51.7948L40.5415 66.9846L40.9063 68.5134L46.9606 76.0251L56.2777 71.1765C56.7014 70.9334 57.0477 70.5987 57.284 70.2033C57.5203 69.8088 57.638 69.3661 57.626 68.9195V26.4661C57.6423 25.4275 57.3526 24.4033 56.7841 23.4943C56.2167 22.5854 55.3912 21.8233 54.3903 21.2833Z" fill="#F4767A"/>
<path d="M45.1538 26.1086L5.02422 5.60439C4.57769 5.37879 4.07235 5.26092 3.5583 5.26247C3.04425 5.26411 2.53892 5.38515 2.09458 5.61365C1.64914 5.84205 1.27994 6.16989 1.02291 6.56428C0.765889 6.95867 0.629754 7.40602 0.628665 7.86147V50.3983C0.627576 51.4161 0.928158 52.4164 1.50102 53.2988C2.07388 54.1812 2.89832 54.9148 3.89157 55.4258L44.0212 75.9661C44.4775 76.2004 44.997 76.3249 45.5252 76.3258C46.0545 76.3268 46.574 76.2043 47.0314 75.9709C47.4899 75.7365 47.87 75.3999 48.1346 74.9948C48.3993 74.5897 48.5387 74.1296 48.5376 73.6609V31.3032C48.5409 30.25 48.2294 29.2146 47.6358 28.3023C47.0412 27.39 46.1852 26.6331 45.1538 26.1086Z" fill="#ED5561"/>
<path d="M48.5377 73.6601V31.3024C48.5236 30.603 48.3689 29.9114 48.0792 29.2603L57.3833 24.4836C57.6545 25.1093 57.8004 25.772 57.8146 26.4421V68.8114C57.8265 69.2589 57.7089 69.7007 57.4726 70.0961C57.2374 70.4906 56.8899 70.8263 56.4663 71.0684L47.2297 75.8457C47.6327 75.6036 47.9627 75.2776 48.1914 74.8966C48.419 74.5156 48.5377 74.0912 48.5377 73.6601Z" fill="#D8395A"/>
<path d="M10.1625 25.9642L5.28125 23.4802V39.0046L8.53 40.6526V35.1354L9.87937 35.84C11.7798 36.8073 13.237 37.1178 14.2749 36.7596C15.3128 36.4013 15.8116 35.3743 15.8258 33.7024C15.8476 32.1523 15.3499 30.6313 14.3958 29.3317C13.2991 27.9332 11.8495 26.7802 10.1625 25.9642ZM11.8071 33.5353C11.4128 33.5827 11.0109 33.5596 10.6265 33.4673C10.242 33.375 9.88265 33.2153 9.56899 32.9978L8.50386 32.4486V27.839L9.97304 28.5913C10.7594 28.9582 11.4313 29.4915 11.929 30.1438C12.3505 30.7533 12.5618 31.4591 12.5357 32.1739C12.589 32.9381 12.3059 33.392 11.8071 33.5353Z" fill="white"/>
<path d="M27.125 40.749L21.0838 37.6561L21.098 31.5657L17.8612 29.9058L17.8079 45.4541L21.0577 47.114L21.0708 40.4027L27.125 43.4956L27.0978 50.207L30.3345 51.8549L30.3879 36.3066L27.1522 34.6586L27.125 40.749Z" fill="white"/>
<path d="M42.4966 43.7221C41.4065 42.3156 39.9558 41.1576 38.2634 40.3425L33.3821 37.8467V53.3711L36.6177 55.0309V49.5258L37.966 50.2303C39.8676 51.2096 41.3237 51.5081 42.3485 51.1499C43.3733 50.7916 43.9125 49.7766 43.9125 48.0927C43.9397 46.5439 43.4463 45.0229 42.4966 43.7221ZM39.9079 47.9136C39.1096 47.9981 38.3058 47.8008 37.6698 47.3643L36.6047 46.815V42.2412L38.0739 42.9936C38.8558 43.366 39.5267 43.8982 40.0299 44.546C40.4492 45.1564 40.6604 45.8617 40.6365 46.5761C40.6496 47.3046 40.4067 47.7584 39.9079 47.9136Z" fill="white"/>
</svg>
