<svg width="84" height="79" viewBox="0 0 84 79" fill="none" xmlns="http://www.w3.org/2000/svg">
<path d="M41.0922 64.8531L0.249268 43.8718V57.4012L41.0922 78.3236V64.8531Z" fill="#BBCEE1"/>
<path d="M42.4543 22.3875L0.25 43.8712L41.093 64.8525L83.3517 43.3456L42.4543 22.3875Z" fill="white"/>
<path d="M83.351 43.3464L41.0923 64.8534V78.3239L83.351 56.6732V43.3464Z" fill="#A7BCCE"/>
<path d="M41.0925 42.7243L0.249512 21.7305V35.2608L41.0925 56.1948V42.7243Z" fill="#BBCEE1"/>
<path d="M42.4546 0.248047L0.250244 21.7309L41.0932 42.7247L83.3519 21.2177L42.4546 0.248047Z" fill="white"/>
<path d="M83.3513 21.2168L41.0925 42.7237V56.1943L83.3513 34.5436V21.2168Z" fill="#A7BCCE"/>
<path d="M45.5827 11.9258L49.547 19.4375L53.5243 26.9492L38.8674 24.943L24.2104 22.9243L34.9031 17.4313L45.5827 11.9258Z" fill="#EF4136"/>
</svg>
