<svg width="58" height="76" viewBox="0 0 58 76" fill="none" xmlns="http://www.w3.org/2000/svg">
<path d="M54.0136 20.7353L14.3436 0.434604C13.7337 0.126342 13.0389 -0.0238318 12.3375 0.0015352C11.6361 0.0269022 10.9576 0.22665 10.3793 0.57793L1.66772 5.03229L5.71368 9.89253L7.22317 11.4211V46.22C7.22426 47.2385 7.5281 48.2387 8.10314 49.1212C8.67817 50.0038 9.50481 50.7368 10.5002 51.247L40.1648 66.4489L40.4752 67.9063L46.5294 75.417L55.8476 70.5693H55.9151C56.3508 70.334 56.7113 70.0022 56.9585 69.6058C57.2068 69.2103 57.3353 68.7647 57.331 68.3124V25.9428C57.343 24.8934 57.0434 23.8594 56.4608 22.945C55.8781 22.0307 55.0341 21.2687 54.0136 20.7353Z" fill="#FFA8E1"/>
<path d="M44.7364 25.5835L4.60687 5.06765C4.15926 4.84292 3.65393 4.72563 3.13879 4.72756C2.62365 4.7294 2.1194 4.85044 1.67287 5.07846C1.22743 5.30657 0.857145 5.63383 0.597942 6.02784C0.339828 6.42184 0.201509 6.8689 0.198242 7.32474V49.8731C0.20042 50.8907 0.504265 51.889 1.0793 52.7696C1.65434 53.6492 2.47987 54.3803 3.47421 54.8886L43.6038 75.4407C44.0623 75.6732 44.5818 75.7937 45.11 75.7928C45.6382 75.7908 46.1566 75.6664 46.614 75.432C47.0704 75.1977 47.4505 74.861 47.7151 74.4559C47.9798 74.0518 48.1192 73.5917 48.1203 73.1239V30.7669C48.1213 29.7156 47.8088 28.6826 47.2152 27.772C46.6206 26.8625 45.7656 26.1073 44.7364 25.5835Z" fill="#FF7AD2"/>
<path d="M48.1204 73.1245V30.7674C48.1063 30.0672 47.9516 29.3756 47.6619 28.7246L56.966 23.9482C57.2284 24.58 57.3689 25.2455 57.3842 25.9188V68.2768C57.3885 68.7291 57.2611 69.1747 57.0128 69.5702C56.7645 69.9656 56.4051 70.2974 55.9684 70.5337H55.9008L46.6643 75.3101C47.0945 75.0834 47.4539 74.7641 47.7087 74.3822C47.9636 74.0002 48.1052 73.5681 48.1204 73.1245Z" fill="#DE64C6"/>
<path d="M36.8212 33.9325C34.7203 30.5586 31.6796 27.7181 27.9887 25.6801C24.7933 24.0442 21.5979 23.6497 19.1431 24.892C14.802 27.0892 14.3032 33.6817 17.6597 40.416L6.75146 45.8145L9.93377 50.6863L20.829 45.1818C22.7153 47.5516 25.1287 49.5549 27.9211 51.0682C31.1176 52.6925 34.313 53.087 36.7667 51.8572C41.6621 49.3967 41.6894 41.3835 36.8212 33.9325ZM33.5844 47.0684C32.6761 47.4291 31.6752 47.5718 30.6842 47.4841C29.6931 47.3963 28.7456 47.0799 27.9353 46.5668C25.5709 45.2666 23.6247 43.4485 22.2851 41.288C19.1703 36.5117 19.1976 31.3765 22.2851 29.8005C23.1945 29.4388 24.1965 29.2961 25.1875 29.3858C26.1797 29.4764 27.1272 29.7966 27.9353 30.3136C30.3008 31.6071 32.247 33.4213 33.5844 35.5799C36.7406 40.309 36.7133 45.4557 33.5844 47.0086V47.0684Z" fill="white"/>
</svg>
